<?xml version="1.0" standalone="no"?><!DOCTYPE svg PUBLIC "-//W3C//DTD SVG 1.1//EN" "http://www.w3.org/Graphics/SVG/1.1/DTD/svg11.dtd"><svg t="1640659058744" class="icon" viewBox="0 0 1024 1024" version="1.1" xmlns="http://www.w3.org/2000/svg" p-id="7205" xmlns:xlink="http://www.w3.org/1999/xlink" width="100" height="100"><defs><style type="text/css"></style></defs><path d="M295.958834 949.850616H727.262748v74.149384H295.958834zM511.610791 825.104007c-227.477935 0-412.552004-185.074068-412.552004-412.552003S284.132855 0 511.610791 0 924.162794 185.074068 924.162794 412.552004 739.088726 825.104007 511.610791 825.104007z m0-750.944643c-186.590987 0-338.39264 151.801653-338.39264 338.39264s151.801653 338.39264 338.39264 338.39264S850.01341 599.142991 850.01341 412.552004 698.201778 74.159364 511.610791 74.159364z" fill="#333333" p-id="7206"></path><path d="M511.62077 412.552004m-96.044908 0a96.044909 96.044909 0 1 0 192.089817 0 96.044909 96.044909 0 1 0-192.089817 0Z" fill="#C6C6C6" p-id="7207"></path></svg>