<?xml version="1.0" standalone="no"?><!DOCTYPE svg PUBLIC "-//W3C//DTD SVG 1.1//EN" "http://www.w3.org/Graphics/SVG/1.1/DTD/svg11.dtd"><svg t="1634966011682" class="icon" viewBox="0 0 1024 1024" version="1.1" xmlns="http://www.w3.org/2000/svg" p-id="3887" xmlns:xlink="http://www.w3.org/1999/xlink" width="200" height="200"><defs><style type="text/css"></style></defs><path d="M161.376 202.048l60.8-19.968 62.976 191.872-60.8 19.936zM354.624 201.92l60.8-19.936 62.976 191.84-60.8 19.968zM256 960a192 192 0 1 1 192-192 192 192 0 0 1-192 192z m0-320a128 128 0 1 0 128 128 128 128 0 0 0-128-128zM832 960a192 192 0 1 1 192-192 192 192 0 0 1-192 192z m0-320a128 128 0 1 0 128 128 128 128 0 0 0-128-128z" fill="#2A2A3B" p-id="3888"></path><path d="M640 581.76L0 475.2V64h1024v64H64v292.8l512 85.44V192h64v389.76z" fill="#2A2A3B" p-id="3889"></path><path d="M1024 576h-64v-154.88L904.96 256H768v192h128v64h-192V192h247.04L1024 410.88V576z" fill="#2A2A3B" p-id="3890"></path></svg>