<?xml version="1.0" standalone="no"?><!DOCTYPE svg PUBLIC "-//W3C//DTD SVG 1.1//EN" "http://www.w3.org/Graphics/SVG/1.1/DTD/svg11.dtd"><svg t="1635210498788" class="icon" viewBox="0 0 1024 1024" version="1.1" xmlns="http://www.w3.org/2000/svg" p-id="2048" xmlns:xlink="http://www.w3.org/1999/xlink" width="200" height="200"><defs><style type="text/css"></style></defs><path d="M956.526259 52.188616c7.008624 0 12.71151 6.134721 12.71151 13.675464l0 847.579965c0 7.540743-5.701862 13.675464-12.71151 13.675464L64.920592 927.119509c-7.008624 0-12.71151-6.134721-12.71151-13.675464L52.209082 65.86408c0-7.540743 5.701862-13.675464 12.71151-13.675464L956.526259 52.188616M956.526259 1.023306 64.920592 1.023306c-35.278481 0-63.87682 29.030174-63.87682 64.840774l0 847.579965c0 35.8106 28.598338 64.840774 63.87682 64.840774l891.604644 0c35.278481 0 63.87682-29.030174 63.87682-64.840774L1020.402055 65.86408C1020.402055 30.05348 991.803717 1.023306 956.526259 1.023306L956.526259 1.023306z" p-id="2049"></path><path d="M453.343065 195.457624 342.586542 195.457624 342.586542 84.701101 277.43673 84.701101 277.43673 195.457624 166.680207 195.457624 166.680207 260.608459 277.43673 260.608459 277.43673 371.364983 342.586542 371.364983 342.586542 260.608459 453.343065 260.608459Z" p-id="2050"></path><path d="M434.396551 654.634558 388.328329 608.566336 310.011636 686.883029 231.694943 608.566336 185.626721 654.634558 263.943414 732.951251 185.626721 811.267944 231.694943 857.336166 310.011636 779.019473 388.328329 857.336166 434.396551 811.267944 356.079858 732.951251Z" p-id="2051"></path><path d="M567.764048 195.457624l286.662859 0 0 65.150836-286.662859 0 0-65.150836Z" p-id="2052"></path><path d="M567.764048 598.577844l286.662859 0 0 65.150836-286.662859 0 0-65.150836Z" p-id="2053"></path><path d="M567.764048 777.742387l286.662859 0 0 65.150836-286.662859 0 0-65.150836Z" p-id="2054"></path></svg>