<?xml version="1.0" standalone="no"?><!DOCTYPE svg PUBLIC "-//W3C//DTD SVG 1.1//EN" "http://www.w3.org/Graphics/SVG/1.1/DTD/svg11.dtd"><svg t="1634958302305" class="icon" viewBox="0 0 1024 1024" version="1.1" xmlns="http://www.w3.org/2000/svg" p-id="1442" xmlns:xlink="http://www.w3.org/1999/xlink" width="200" height="200"><defs><style type="text/css"></style></defs><path d="M803.16 533.82l17.96 6.41 20.14-56.51-17.94-6.41z" fill="#075A5F" p-id="1443"></path><path d="M837.69 493.69l-143.6-51.19 15.88-44.55 122.33 43.61c11.75 4.19 17.88 17.11 13.69 28.85l-8.3 23.28z" fill="#073443" p-id="1444"></path><path d="M732.02 508.47c-23.49-8.37-35.75-34.21-27.38-57.71l17.3-48.53-49.19-17.54-40.05 112.34 26.26 9.37 22.94 8.18 110.35 39.34c11.75 4.19 24.66-1.93 28.85-13.69l-89.08-31.76z" fill="#075A5F" p-id="1445"></path><path d="M138.79 371.94l-16.53-29.58 151.23-84.53 166.37 54.31-10.53 32.2-152.25-49.71z" fill="#073443" p-id="1446"></path><path d="M402.33 300.99l99.69-41.39 180.65 59.41-12.95 36.35 39.88 14.22a22.564 22.564 0 0 1 12.83 11.6c2.57 5.4 2.88 11.62 0.88 17.26l-49.63 139.18c-4.19 11.75-17.11 17.88-28.85 13.69l-46.15-16.46a22.585 22.585 0 0 1-14.36-15.93l-12.88-52.9c-1.8-7.39-7.2-13.38-14.36-15.93l-149.32-53.24c-11.62-4.14-17.77-16.84-13.81-28.52l11.9-35.11-3.52-32.23z" fill="#077C8B" p-id="1447"></path><path d="M439.439 330.73l9.244-25.93 253.626 90.42-9.245 25.93z" fill="#075A5F" p-id="1448"></path><path d="M875.17 768.34l-21.29-7.6c54.16-151.87 69.35-245.54-13.33-275.01l7.58-21.29c110.85 39.52 74.13 171.81 27.04 303.9z" fill="#077C8B" p-id="1449"></path><path d="M673.1 487.45c-6.47 18.13-26.4 27.59-44.53 21.12-18.13-6.45-27.59-26.4-21.12-44.53 6.45-18.11 26.4-27.59 44.53-21.12 18.12 6.48 27.59 26.4 21.12 44.53z" fill="#96E6D2" p-id="1450"></path><path d="M182.72 472.93c0 22.6-18.35 40.94-40.94 40.94-22.62 0-40.94-18.35-40.94-40.94 0-22.62 40.94-77.33 40.94-77.33s40.94 54.72 40.94 77.33z" fill="#073443" p-id="1451"></path></svg>